<?xml version="1.0" encoding="UTF-8"?>
<svg id="Layer_2" data-name="Layer 2" xmlns="http://www.w3.org/2000/svg" xmlns:xlink="http://www.w3.org/1999/xlink" viewBox="0 0 1079.76 1080.65">
  <defs>
    <style>
      .cls-1 {
        letter-spacing: 0em;
      }

      .cls-2, .cls-3 {
        fill: #0a0a0a;
      }

      .cls-4, .cls-5 {
        fill: #ebebe9;
      }

      .cls-6, .cls-5 {
        font-size: 33.73px;
      }

      .cls-6, .cls-7, .cls-8 {
        fill: #969696;
      }

      .cls-6, .cls-8 {
        font-family: SpaceMono-Regular, 'Space Mono';
      }

      .cls-5 {
        font-family: SpaceMono-Bold, 'Space Mono';
        letter-spacing: .1em;
      }

      .cls-5, .cls-3 {
        font-weight: 700;
      }

      .cls-9 {
        font-family: Bitter-Medium, Bitter;
        font-size: 74.16px;
        font-variation-settings: 'wght' 500;
        font-weight: 500;
      }

      .cls-9, .cls-10 {
        fill: #231f20;
      }

      .cls-11 {
        fill: #fff;
        stroke-width: 5px;
      }

      .cls-11, .cls-10 {
        stroke: #231f20;
      }

      .cls-11, .cls-10, .cls-12, .cls-13 {
        stroke-miterlimit: 10;
      }

      .cls-3 {
        font-family: CourierNewPS-BoldMT, 'Courier New';
        font-size: 15.18px;
        isolation: isolate;
      }

      .cls-14 {
        stroke: #0a0a0a;
        stroke-linejoin: round;
        stroke-width: 2.8px;
      }

      .cls-14, .cls-12, .cls-13 {
        fill: none;
      }

      .cls-10 {
        stroke-width: 8px;
      }

      .cls-15 {
        letter-spacing: 0em;
      }

      .cls-16 {
        opacity: .36;
      }

      .cls-8 {
        font-size: 27.98px;
        letter-spacing: .1em;
      }

      .cls-12 {
        stroke: #969696;
        stroke-width: 2px;
      }

      .cls-17 {
        letter-spacing: -.02em;
      }

      .cls-18 {
        letter-spacing: -.02em;
      }

      .cls-19 {
        letter-spacing: -.01em;
      }

      .cls-20 {
        letter-spacing: -.03em;
      }

      .cls-21 {
        letter-spacing: -.03em;
      }

      .cls-22 {
        letter-spacing: -.01em;
      }

      .cls-23 {
        letter-spacing: 0em;
      }

      .cls-24 {
        letter-spacing: 0em;
      }

      .cls-13 {
        stroke: #f04d23;
        stroke-width: 3px;
      }

      .cls-25 {
        fill: #f04d23;
      }
    </style>
  </defs>
  <g id="Layer_1-2" data-name="Layer 1">
    <rect class="cls-4" width="1079.76" height="1080.65"/>
    <rect class="cls-10" x="89.37" y="263.11" width="913.04" height="595.03"/>
    <rect class="cls-11" x="81" y="255.74" width="913.04" height="595.03"/>
    <text class="cls-8" transform="translate(683.7 993.79)"><tspan x="0" y="0">THECOPYVAULT.COM</tspan></text>
    <text class="cls-8" transform="translate(90.97 993.79)"><tspan x="0" y="0">FIND THIS AND MORE AT:</tspan></text>
    <image class="cls-16" width="1238" height="300" transform="translate(82.13 75.68) scale(.38)" xlink:href="../Desktop/Screenshot 2026-06-05 at 15.33.33.png"/>
    <path class="cls-7" d="M994.23,920.35h-22.83c-1.8,0-3.26,1.46-3.26,3.26v22.83c0,1.8,1.46,3.26,3.26,3.26h22.83c1.8,0,3.26-1.46,3.26-3.26v-22.83c0-1.8-1.46-3.26-3.26-3.26ZM977.01,945.63h-4.38v-14.13h4.38v14.13ZM974.8,929.65c-1.43,0-2.59-1.17-2.59-2.61s1.16-2.61,2.59-2.61,2.59,1.17,2.59,2.61-1.16,2.61-2.59,2.61ZM993.42,945.63h-4.36v-7.42c0-2.03-.77-3.17-2.38-3.17-1.75,0-2.67,1.18-2.67,3.17v7.42h-4.2v-14.13h4.2v1.9s1.26-2.34,4.26-2.34,5.14,1.83,5.14,5.62v8.95Z"/>
    <path class="cls-7" d="M934.8,920.48c-4.01,0-4.52.02-6.09.09-1.57.07-2.65.32-3.59.69-.97.38-1.8.88-2.62,1.7-.82.82-1.33,1.65-1.71,2.62-.37.94-.62,2.01-.69,3.59-.07,1.58-.09,2.08-.09,6.1s.02,4.52.09,6.09c.07,1.57.32,2.65.69,3.59.38.97.88,1.8,1.7,2.62.82.82,1.65,1.33,2.62,1.71.94.37,2.01.61,3.59.69,1.58.07,2.08.09,6.09.09s4.52-.02,6.09-.09c1.57-.07,2.65-.32,3.59-.69.97-.38,1.8-.88,2.62-1.71.82-.82,1.33-1.65,1.71-2.62.36-.94.61-2.01.69-3.59.07-1.58.09-2.08.09-6.09s-.02-4.52-.09-6.09c-.07-1.57-.32-2.65-.69-3.59-.38-.97-.88-1.8-1.71-2.62-.82-.82-1.64-1.33-2.62-1.7-.94-.37-2.02-.61-3.59-.69-1.58-.07-2.08-.09-6.09-.09h0ZM933.48,923.14c.39,0,.83,0,1.33,0,3.95,0,4.41.01,5.97.08,1.44.07,2.22.31,2.74.51.69.27,1.18.59,1.7,1.11.52.52.84,1.01,1.11,1.7.2.52.44,1.3.51,2.74.07,1.56.09,2.03.09,5.97s-.02,4.41-.09,5.97c-.07,1.44-.31,2.22-.51,2.74-.27.69-.59,1.18-1.11,1.7-.52.52-1.01.84-1.7,1.11-.52.2-1.3.44-2.74.51-1.56.07-2.03.09-5.97.09s-4.41-.02-5.97-.09c-1.44-.07-2.22-.31-2.74-.51-.69-.27-1.18-.59-1.7-1.11-.52-.52-.84-1.01-1.11-1.7-.2-.52-.44-1.3-.51-2.74-.07-1.56-.08-2.03-.08-5.97s.01-4.41.08-5.97c.07-1.44.31-2.22.51-2.74.27-.69.59-1.18,1.11-1.7.52-.52,1.01-.84,1.7-1.11.52-.2,1.3-.44,2.74-.51,1.36-.06,1.89-.08,4.65-.08h0ZM942.69,925.59c-.98,0-1.77.79-1.77,1.77s.79,1.77,1.77,1.77,1.77-.79,1.77-1.77-.79-1.77-1.77-1.77h0ZM934.8,927.67c-4.19,0-7.59,3.4-7.59,7.59s3.4,7.59,7.59,7.59c4.19,0,7.59-3.4,7.59-7.59s-3.4-7.59-7.59-7.59h0ZM934.8,930.33c2.72,0,4.93,2.21,4.93,4.93s-2.21,4.93-4.93,4.93-4.93-2.21-4.93-4.93,2.21-4.93,4.93-4.93Z"/>
    <rect class="cls-2" x="82.13" y="75.68" width="468.44" height="113.48"/>
    <text class="cls-5" transform="translate(177.51 140.9)"><tspan x="0" y="0">THE COPY VAULT</tspan></text>
    <text class="cls-6" transform="translate(151.4 787.05)"><tspan x="0" y="0">DIESEL</tspan></text>
    <text class="cls-6" transform="translate(843.21 787.05)"><tspan x="0" y="0">2010</tspan></text>
    <line class="cls-13" x1="179.89" y1="157.16" x2="523" y2="157.16"/>
    <g>
      <rect class="cls-25" x="109.01" y="108.62" width="47.97" height="48.54"/>
      <g>
        <path class="cls-14" d="M123.6,120.37h15l7,7v19h-22v-26Z"/>
        <path class="cls-14" d="M138.6,120.37v7h7"/>
        <text class="cls-3" transform="translate(130.04 140.82)"><tspan x="0" y="0">?</tspan></text>
      </g>
    </g>
    <text class="cls-9" transform="translate(151.4 388.81)"><tspan class="cls-21" x="0" y="0">S</tspan><tspan x="42.34" y="0">mart m</tspan><tspan class="cls-20" x="300.11" y="0">a</tspan><tspan x="338.75" y="0">y h</tspan><tspan class="cls-17" x="439.38" y="0">a</tspan><tspan class="cls-18" x="478.38" y="0">v</tspan><tspan x="516.65" y="0">e </tspan><tspan class="cls-23" x="571.52" y="0">t</tspan><tspan x="598.59" y="0">he </tspan><tspan x="0" y="88.99">p</tspan><tspan class="cls-22" x="44.49" y="88.99">l</tspan><tspan x="65.56" y="88.99">an</tspan><tspan class="cls-18" x="153.65" y="88.99">s</tspan><tspan class="cls-15" x="187.91" y="88.99">, but stupid has </tspan><tspan class="cls-24" x="0" y="177.98">t</tspan><tspan x="27.07" y="177.98">he s</tspan><tspan class="cls-19" x="163.88" y="177.98">t</tspan><tspan x="190.51" y="177.98">o</tspan><tspan class="cls-22" x="233.22" y="177.98">r</tspan><tspan class="cls-1" x="265.85" y="177.98">ie</tspan><tspan class="cls-18" x="329.03" y="177.98">s</tspan><tspan x="363.29" y="177.98">.</tspan></text>
    <line class="cls-12" x1="157.04" y1="717.26" x2="922.01" y2="717.26"/>
  </g>
</svg>