<?xml version="1.0" encoding="UTF-8"?>
<svg id="Layer_2" data-name="Layer 2" xmlns="http://www.w3.org/2000/svg" viewBox="0 0 29.56 29.56">
  <defs>
    <style>
      .cls-1 {
        fill: #969696;
      }
    </style>
  </defs>
  <g id="Layer_1-2" data-name="Layer 1">
    <path class="cls-1" d="M14.78,0C10.77,0,10.26.02,8.69.09c-1.57.07-2.65.32-3.59.69-.97.38-1.8.88-2.62,1.7-.82.82-1.33,1.65-1.71,2.62-.37.94-.62,2.01-.69,3.59-.07,1.58-.09,2.08-.09,6.1s.02,4.52.09,6.09c.07,1.57.32,2.65.69,3.59.38.97.88,1.8,1.7,2.62.82.82,1.65,1.33,2.62,1.71.94.37,2.01.61,3.59.69,1.58.07,2.08.09,6.09.09s4.52-.02,6.09-.09c1.57-.07,2.65-.32,3.59-.69.97-.38,1.8-.88,2.62-1.71.82-.82,1.33-1.65,1.71-2.62.36-.94.61-2.01.69-3.59.07-1.58.09-2.08.09-6.09s-.02-4.52-.09-6.09c-.07-1.57-.32-2.65-.69-3.59-.38-.97-.88-1.8-1.71-2.62-.82-.82-1.64-1.33-2.62-1.7-.94-.37-2.02-.61-3.59-.69-1.58-.07-2.08-.09-6.09-.09h0ZM13.46,2.66c.39,0,.83,0,1.33,0,3.95,0,4.41.01,5.97.08,1.44.07,2.22.31,2.74.51.69.27,1.18.59,1.7,1.11.52.52.84,1.01,1.11,1.7.2.52.44,1.3.51,2.74.07,1.56.09,2.03.09,5.97s-.02,4.41-.09,5.97c-.07,1.44-.31,2.22-.51,2.74-.27.69-.59,1.18-1.11,1.7-.52.52-1.01.84-1.7,1.11-.52.2-1.3.44-2.74.51-1.56.07-2.03.09-5.97.09s-4.41-.02-5.97-.09c-1.44-.07-2.22-.31-2.74-.51-.69-.27-1.18-.59-1.7-1.11-.52-.52-.84-1.01-1.11-1.7-.2-.52-.44-1.3-.51-2.74-.07-1.56-.08-2.03-.08-5.97s.01-4.41.08-5.97c.07-1.44.31-2.22.51-2.74.27-.69.59-1.18,1.11-1.7.52-.52,1.01-.84,1.7-1.11.52-.2,1.3-.44,2.74-.51,1.36-.06,1.89-.08,4.65-.08h0ZM22.67,5.12c-.98,0-1.77.79-1.77,1.77s.79,1.77,1.77,1.77,1.77-.79,1.77-1.77-.79-1.77-1.77-1.77h0ZM14.78,7.19c-4.19,0-7.59,3.4-7.59,7.59s3.4,7.59,7.59,7.59c4.19,0,7.59-3.4,7.59-7.59s-3.4-7.59-7.59-7.59h0ZM14.78,9.85c2.72,0,4.93,2.21,4.93,4.93s-2.21,4.93-4.93,4.93-4.93-2.21-4.93-4.93,2.21-4.93,4.93-4.93Z"/>
  </g>
</svg>