<?xml version="1.0" encoding="UTF-8"?>
<svg id="Layer_2" data-name="Layer 2" xmlns="http://www.w3.org/2000/svg" viewBox="0 0 29.36 29.36">
  <defs>
    <style>
      .cls-1 {
        fill: #969696;
      }
    </style>
  </defs>
  <g id="Layer_1-2" data-name="Layer 1">
    <path class="cls-1" d="M26.09,0H3.26C1.46,0,0,1.46,0,3.26v22.83c0,1.8,1.46,3.26,3.26,3.26h22.83c1.8,0,3.26-1.46,3.26-3.26V3.26c0-1.8-1.46-3.26-3.26-3.26ZM8.88,25.28h-4.38v-14.13h4.38v14.13ZM6.67,9.29c-1.43,0-2.59-1.17-2.59-2.61s1.16-2.61,2.59-2.61,2.59,1.17,2.59,2.61-1.16,2.61-2.59,2.61ZM25.28,25.28h-4.36v-7.42c0-2.03-.77-3.17-2.38-3.17-1.75,0-2.67,1.18-2.67,3.17v7.42h-4.2v-14.13h4.2v1.9s1.26-2.34,4.26-2.34,5.14,1.83,5.14,5.62v8.95Z"/>
  </g>
</svg>